<svg width="1532" height="1058" viewBox="0 0 1532 1058" fill="none" xmlns="http://www.w3.org/2000/svg">
<line x1="12.5" y1="658.994" x2="12.5" y2="399.006" stroke="black" stroke-width="5" stroke-linecap="round"/>
<line x1="27.5" y1="801.89" x2="27.5" y2="256.11" stroke="black" stroke-width="5" stroke-linecap="round"/>
<line x1="42.5" y1="804.448" x2="42.5" y2="253.552" stroke="black" stroke-width="5" stroke-linecap="round"/>
<line x1="57.5" y1="807.513" x2="57.5" y2="250.487" stroke="black" stroke-width="5" stroke-linecap="round"/>
<line x1="72.5" y1="641.025" x2="72.5" y2="416.975" stroke="black" stroke-width="5" stroke-linecap="round"/>
<line x1="87.5" y1="752.867" x2="87.5" y2="305.133" stroke="black" stroke-width="5" stroke-linecap="round"/>
<line x1="102.5" y1="836.366" x2="102.5" y2="221.634" stroke="black" stroke-width="5" stroke-linecap="round"/>
<line x1="117.5" y1="806.358" x2="117.5" y2="251.642" stroke="black" stroke-width="5" stroke-linecap="round"/>
<line x1="132.5" y1="778.587" x2="132.5" y2="279.413" stroke="black" stroke-width="5" stroke-linecap="round"/>
<line x1="147.5" y1="741.936" x2="147.5" y2="316.064" stroke="black" stroke-width="5" stroke-linecap="round"/>
<line x1="162.5" y1="732.417" x2="162.5" y2="325.583" stroke="black" stroke-width="5" stroke-linecap="round"/>
<line x1="177.5" y1="747.029" x2="177.5" y2="310.971" stroke="black" stroke-width="5" stroke-linecap="round"/>
<line x1="192.5" y1="784.579" x2="192.5" y2="273.421" stroke="black" stroke-width="5" stroke-linecap="round"/>
<line x1="207.5" y1="700.032" x2="207.5" y2="357.968" stroke="black" stroke-width="5" stroke-linecap="round"/>
<line x1="222.5" y1="763.835" x2="222.5" y2="294.165" stroke="black" stroke-width="5" stroke-linecap="round"/>
<line x1="237.5" y1="769.774" x2="237.5" y2="288.226" stroke="black" stroke-width="5" stroke-linecap="round"/>
<line x1="252.5" y1="718.65" x2="252.5" y2="339.35" stroke="black" stroke-width="5" stroke-linecap="round"/>
<line x1="267.5" y1="681.634" x2="267.5" y2="376.366" stroke="black" stroke-width="5" stroke-linecap="round"/>
<line x1="282.5" y1="810.274" x2="282.5" y2="247.726" stroke="black" stroke-width="5" stroke-linecap="round"/>
<line x1="297.5" y1="753.568" x2="297.5" y2="304.432" stroke="black" stroke-width="5" stroke-linecap="round"/>
<line x1="312.5" y1="679.63" x2="312.5" y2="378.37" stroke="black" stroke-width="5" stroke-linecap="round"/>
<line x1="327.5" y1="756.159" x2="327.5" y2="301.841" stroke="black" stroke-width="5" stroke-linecap="round"/>
<line x1="342.5" y1="769.639" x2="342.5" y2="288.361" stroke="black" stroke-width="5" stroke-linecap="round"/>
<line x1="357.5" y1="814.688" x2="357.5" y2="243.312" stroke="black" stroke-width="5" stroke-linecap="round"/>
<line x1="372.5" y1="643.039" x2="372.5" y2="414.961" stroke="black" stroke-width="5" stroke-linecap="round"/>
<line x1="387.5" y1="676.147" x2="387.5" y2="381.853" stroke="black" stroke-width="5" stroke-linecap="round"/>
<line x1="402.5" y1="695.638" x2="402.5" y2="362.362" stroke="black" stroke-width="5" stroke-linecap="round"/>
<line x1="417.5" y1="649.644" x2="417.5" y2="408.356" stroke="black" stroke-width="5" stroke-linecap="round"/>
<line x1="432.5" y1="838.779" x2="432.5" y2="219.221" stroke="black" stroke-width="5" stroke-linecap="round"/>
<line x1="447.5" y1="740.151" x2="447.5" y2="317.849" stroke="black" stroke-width="5" stroke-linecap="round"/>
<line x1="462.5" y1="773.162" x2="462.5" y2="284.838" stroke="black" stroke-width="5" stroke-linecap="round"/>
<line x1="477.5" y1="732.764" x2="477.5" y2="325.236" stroke="black" stroke-width="5" stroke-linecap="round"/>
<line x1="492.5" y1="673.266" x2="492.5" y2="384.734" stroke="black" stroke-width="5" stroke-linecap="round"/>
<line x1="507.5" y1="815.661" x2="507.5" y2="242.339" stroke="black" stroke-width="5" stroke-linecap="round"/>
<line x1="522.5" y1="648.929" x2="522.5" y2="409.072" stroke="black" stroke-width="5" stroke-linecap="round"/>
<line x1="537.5" y1="663.723" x2="537.5" y2="394.277" stroke="black" stroke-width="5" stroke-linecap="round"/>
<line x1="552.5" y1="836.862" x2="552.5" y2="221.138" stroke="black" stroke-width="5" stroke-linecap="round"/>
<line x1="567.5" y1="695.548" x2="567.5" y2="362.452" stroke="black" stroke-width="5" stroke-linecap="round"/>
<line x1="582.5" y1="813.121" x2="582.5" y2="244.879" stroke="black" stroke-width="5" stroke-linecap="round"/>
<line x1="597.5" y1="681.022" x2="597.5" y2="376.978" stroke="black" stroke-width="5" stroke-linecap="round"/>
<line x1="612.5" y1="826.948" x2="612.5" y2="231.052" stroke="black" stroke-width="5" stroke-linecap="round"/>
<line x1="627.5" y1="819.717" x2="627.5" y2="238.284" stroke="black" stroke-width="5" stroke-linecap="round"/>
<line x1="642.5" y1="687.953" x2="642.5" y2="370.047" stroke="black" stroke-width="5" stroke-linecap="round"/>
<line x1="657.5" y1="787.663" x2="657.5" y2="270.337" stroke="black" stroke-width="5" stroke-linecap="round"/>
<line x1="672.5" y1="760.155" x2="672.5" y2="297.845" stroke="black" stroke-width="5" stroke-linecap="round"/>
<line x1="687.5" y1="637.071" x2="687.5" y2="420.929" stroke="black" stroke-width="5" stroke-linecap="round"/>
<line x1="702.5" y1="684.077" x2="702.5" y2="373.923" stroke="black" stroke-width="5" stroke-linecap="round"/>
<line x1="717.5" y1="767.069" x2="717.5" y2="290.931" stroke="black" stroke-width="5" stroke-linecap="round"/>
<line x1="732.5" y1="705.702" x2="732.5" y2="352.298" stroke="black" stroke-width="5" stroke-linecap="round"/>
<line x1="747.5" y1="702.068" x2="747.5" y2="355.932" stroke="black" stroke-width="5" stroke-linecap="round"/>
<line x1="762.5" y1="822.72" x2="762.5" y2="235.28" stroke="black" stroke-width="5" stroke-linecap="round"/>
<line x1="777.5" y1="836.026" x2="777.5" y2="221.974" stroke="black" stroke-width="5" stroke-linecap="round"/>
<line x1="792.5" y1="713.688" x2="792.5" y2="344.312" stroke="black" stroke-width="5" stroke-linecap="round"/>
<line x1="807.5" y1="687.275" x2="807.5" y2="370.725" stroke="black" stroke-width="5" stroke-linecap="round"/>
<line x1="822.5" y1="809.836" x2="822.5" y2="248.164" stroke="black" stroke-width="5" stroke-linecap="round"/>
<line x1="837.5" y1="743.724" x2="837.5" y2="314.276" stroke="black" stroke-width="5" stroke-linecap="round"/>
<line x1="852.5" y1="802.229" x2="852.5" y2="255.771" stroke="black" stroke-width="5" stroke-linecap="round"/>
<line x1="867.5" y1="810.113" x2="867.5" y2="247.887" stroke="black" stroke-width="5" stroke-linecap="round"/>
<line x1="882.5" y1="789.122" x2="882.5" y2="268.878" stroke="black" stroke-width="5" stroke-linecap="round"/>
<line x1="897.5" y1="820.407" x2="897.5" y2="237.593" stroke="black" stroke-width="5" stroke-linecap="round"/>
<line x1="912.5" y1="737.639" x2="912.5" y2="320.361" stroke="black" stroke-width="5" stroke-linecap="round"/>
<line x1="927.5" y1="673.178" x2="927.5" y2="384.822" stroke="black" stroke-width="5" stroke-linecap="round"/>
<line x1="942.5" y1="708.93" x2="942.5" y2="349.07" stroke="black" stroke-width="5" stroke-linecap="round"/>
<line x1="957.5" y1="813.058" x2="957.5" y2="244.942" stroke="black" stroke-width="5" stroke-linecap="round"/>
<line x1="972.5" y1="749.862" x2="972.5" y2="308.138" stroke="black" stroke-width="5" stroke-linecap="round"/>
<line x1="987.5" y1="829.902" x2="987.5" y2="228.098" stroke="black" stroke-width="5" stroke-linecap="round"/>
<line x1="1002.5" y1="700.553" x2="1002.5" y2="357.447" stroke="black" stroke-width="5" stroke-linecap="round"/>
<line x1="1017.5" y1="741.829" x2="1017.5" y2="316.171" stroke="black" stroke-width="5" stroke-linecap="round"/>
<line x1="1032.5" y1="681.49" x2="1032.5" y2="376.51" stroke="black" stroke-width="5" stroke-linecap="round"/>
<line x1="1047.5" y1="829.446" x2="1047.5" y2="228.554" stroke="black" stroke-width="5" stroke-linecap="round"/>
<line x1="1062.5" y1="741.266" x2="1062.5" y2="316.734" stroke="black" stroke-width="5" stroke-linecap="round"/>
<line x1="1077.5" y1="687.784" x2="1077.5" y2="370.216" stroke="black" stroke-width="5" stroke-linecap="round"/>
<line x1="1092.5" y1="633.003" x2="1092.5" y2="424.997" stroke="black" stroke-width="5" stroke-linecap="round"/>
<line x1="1107.5" y1="667.143" x2="1107.5" y2="390.857" stroke="black" stroke-width="5" stroke-linecap="round"/>
<line x1="1122.5" y1="727.124" x2="1122.5" y2="330.876" stroke="black" stroke-width="5" stroke-linecap="round"/>
<line x1="1137.5" y1="727.536" x2="1137.5" y2="330.464" stroke="black" stroke-width="5" stroke-linecap="round"/>
<line x1="1152.5" y1="826.751" x2="1152.5" y2="231.249" stroke="black" stroke-width="5" stroke-linecap="round"/>
<line x1="1167.5" y1="801.508" x2="1167.5" y2="256.492" stroke="black" stroke-width="5" stroke-linecap="round"/>
<line x1="1182.5" y1="840.38" x2="1182.5" y2="217.62" stroke="black" stroke-width="5" stroke-linecap="round"/>
<line x1="1197.5" y1="677.379" x2="1197.5" y2="380.621" stroke="black" stroke-width="5" stroke-linecap="round"/>
<line x1="1212.5" y1="692.324" x2="1212.5" y2="365.676" stroke="black" stroke-width="5" stroke-linecap="round"/>
<line x1="1227.5" y1="770.71" x2="1227.5" y2="287.29" stroke="black" stroke-width="5" stroke-linecap="round"/>
<line x1="1242.5" y1="825.39" x2="1242.5" y2="232.61" stroke="black" stroke-width="5" stroke-linecap="round"/>
<line x1="1257.5" y1="751.765" x2="1257.5" y2="306.235" stroke="black" stroke-width="5" stroke-linecap="round"/>
<line x1="1272.5" y1="810.825" x2="1272.5" y2="247.175" stroke="black" stroke-width="5" stroke-linecap="round"/>
<line x1="1287.5" y1="655.649" x2="1287.5" y2="402.351" stroke="black" stroke-width="5" stroke-linecap="round"/>
<line x1="1302.5" y1="763.429" x2="1302.5" y2="294.571" stroke="black" stroke-width="5" stroke-linecap="round"/>
<line x1="1317.5" y1="814.839" x2="1317.5" y2="243.161" stroke="black" stroke-width="5" stroke-linecap="round"/>
<line x1="1332.5" y1="717.266" x2="1332.5" y2="340.734" stroke="black" stroke-width="5" stroke-linecap="round"/>
<line x1="1347.5" y1="814.532" x2="1347.5" y2="243.468" stroke="black" stroke-width="5" stroke-linecap="round"/>
<line x1="1362.5" y1="833.602" x2="1362.5" y2="224.398" stroke="black" stroke-width="5" stroke-linecap="round"/>
<line x1="1377.5" y1="712.629" x2="1377.5" y2="345.371" stroke="black" stroke-width="5" stroke-linecap="round"/>
<line x1="1392.5" y1="781.634" x2="1392.5" y2="276.366" stroke="black" stroke-width="5" stroke-linecap="round"/>
<line x1="1407.5" y1="783.931" x2="1407.5" y2="274.069" stroke="black" stroke-width="5" stroke-linecap="round"/>
<line x1="1422.5" y1="751.344" x2="1422.5" y2="306.656" stroke="black" stroke-width="5" stroke-linecap="round"/>
<line x1="1437.5" y1="771.725" x2="1437.5" y2="286.275" stroke="black" stroke-width="5" stroke-linecap="round"/>
<line x1="1452.5" y1="799.084" x2="1452.5" y2="258.916" stroke="black" stroke-width="5" stroke-linecap="round"/>
<line x1="1467.5" y1="716.555" x2="1467.5" y2="341.446" stroke="black" stroke-width="5" stroke-linecap="round"/>
<line x1="1482.5" y1="721.917" x2="1482.5" y2="336.083" stroke="black" stroke-width="5" stroke-linecap="round"/>
<line x1="1497.5" y1="724.617" x2="1497.5" y2="333.383" stroke="black" stroke-width="5" stroke-linecap="round"/>
<line x1="1512.5" y1="830.218" x2="1512.5" y2="227.782" stroke="black" stroke-width="5" stroke-linecap="round"/>
<line x1="1527.5" y1="796.571" x2="1527.5" y2="261.429" stroke="black" stroke-width="5" stroke-linecap="round"/>
</svg>
